<?xml version="1.0" encoding="UTF-8" standalone="no"?>
<!-- Created with Inkscape (http://www.inkscape.org/) -->

<svg
   xmlns:dc="http://purl.org/dc/elements/1.1/"
   xmlns:cc="http://creativecommons.org/ns#"
   xmlns:rdf="http://www.w3.org/1999/02/22-rdf-syntax-ns#"
   xmlns:svg="http://www.w3.org/2000/svg"
   xmlns="http://www.w3.org/2000/svg"
   xmlns:sodipodi="http://sodipodi.sourceforge.net/DTD/sodipodi-0.dtd"
   xmlns:inkscape="http://www.inkscape.org/namespaces/inkscape"
   width="400"
   height="400"
   id="svg2"
   version="1.1"
   inkscape:version="0.47 r22583"
   sodipodi:docname="Shinkansen_blue.svg">
  <defs
     id="defs4">
    <inkscape:perspective
       sodipodi:type="inkscape:persp3d"
       inkscape:vp_x="0 : 526.18109 : 1"
       inkscape:vp_y="0 : 1000 : 0"
       inkscape:vp_z="744.09448 : 526.18109 : 1"
       inkscape:persp3d-origin="372.04724 : 350.78739 : 1"
       id="perspective10" />
    <inkscape:perspective
       id="perspective2824"
       inkscape:persp3d-origin="0.5 : 0.33333333 : 1"
       inkscape:vp_z="1 : 0.5 : 1"
       inkscape:vp_y="0 : 1000 : 0"
       inkscape:vp_x="0 : 0.5 : 1"
       sodipodi:type="inkscape:persp3d" />
  </defs>
  <sodipodi:namedview
     id="base"
     pagecolor="#ffffff"
     bordercolor="#666666"
     borderopacity="1.0"
     inkscape:pageopacity="0.0"
     inkscape:pageshadow="2"
     inkscape:zoom="1.815"
     inkscape:cx="109.36639"
     inkscape:cy="200"
     inkscape:document-units="px"
     inkscape:current-layer="layer1"
     showgrid="false"
     inkscape:window-width="1280"
     inkscape:window-height="975"
     inkscape:window-x="-4"
     inkscape:window-y="-4"
     inkscape:window-maximized="1" />
  <metadata
     id="metadata7">
    <rdf:RDF>
      <cc:Work
         rdf:about="">
        <dc:format>image/svg+xml</dc:format>
        <dc:type
           rdf:resource="http://purl.org/dc/dcmitype/StillImage" />
        <dc:title />
      </cc:Work>
    </rdf:RDF>
  </metadata>
  <g
     inkscape:label="レイヤー 1"
     inkscape:groupmode="layer"
     id="layer1"
     transform="translate(-145.82153,-173.37328)">
    <rect
       style="opacity:1;fill:#ffffff;fill-opacity:1;fill-rule:evenodd;stroke:#ff0000;stroke-width:0.50000000000000000;stroke-linecap:butt;stroke-linejoin:round;stroke-miterlimit:4;stroke-opacity:1;stroke-dasharray:none;stroke-dashoffset:0"
       id="rect2814"
       width="378.51239"
       height="379.06335"
       x="11.019283"
       y="10.46832"
       transform="translate(145.82153,173.37328)" />
    <path
       style="fill:#1b1c9a;fill-opacity:1"
       d="m 145.82153,373.37328 0,-200 200,0 200,0 0,200 0,200 -200,0 -200,0 0,-200 z m 309.14705,143.06606 c 4.85012,-14.53867 8.71367,-26.52037 8.58567,-26.626 -0.12799,-0.10563 -26.67022,10.8336 -58.98272,24.3094 l -58.75,24.50147 -58.75,-24.50147 c -32.3125,-13.4758 -58.8556,-24.41416 -58.98466,-24.30747 -0.18584,0.15363 15.32804,47.32883 17.20342,52.31282 0.37525,0.99727 21.03658,1.20251 100.66603,1 l 100.19387,-0.25481 8.81839,-26.43394 z m -55.65968,-10.56606 52.75132,-22 -53.11935,-0.25876 c -29.21564,-0.14232 -77.01817,-0.14232 -106.22786,0 l -53.10852,0.25876 52.85852,22.13861 c 29.07219,12.17624 53.13663,22.07624 53.47655,22 0.33992,-0.0762 24.35612,-10.03861 53.36934,-22.13861 z m 68.98767,-36.8672 c 9.86133,-16.82708 21.36563,-51.43984 25.6493,-77.17053 2.0504,-12.31612 1.79836,-45.88431 -0.42393,-56.46227 -4.38954,-20.8939 -11.3934,-35.54213 -22.71151,-47.5 -4.09975,-4.33149 -4.89038,-5.86906 -5.9134,-11.5 -7.24977,-39.90454 -42.25751,-70.71981 -91.64041,-80.66571 -12.54327,-2.52626 -42.32691,-2.52626 -54.87018,0 -10.90277,2.19586 -27.82332,7.76836 -36.00527,11.85775 -30.19305,15.09064 -50.51931,40.216 -55.61871,68.75049 -1.21354,6.7906 -1.77844,7.90535 -6.96928,13.75299 -16.93007,19.07223 -24.85795,45.80607 -23.66589,79.80448 0.60275,17.19088 2.08867,27.2554 6.75018,45.72086 4.40172,17.43629 13.87962,42.16799 20.46902,53.41194 l 2.55935,4.3672 119.91569,0 119.91569,0 2.55935,-4.3672 z M 332.18173,451.96552 c -9.94112,-1.89972 -13.54596,-3.17123 -23.8602,-8.41603 -7.35891,-3.742 -10.74136,-6.31785 -18.54986,-14.12635 -7.82576,-7.82577 -10.40469,-11.21555 -14.28486,-18.7762 -6.89107,-13.42753 -8.95439,-22.01634 -8.95439,-37.27366 0,-15.25732 2.06332,-23.84613 8.95439,-37.27366 3.88017,-7.56065 6.4591,-10.95043 14.28486,-18.7762 7.82577,-7.82576 11.21555,-10.40469 18.7762,-14.28486 13.42753,-6.89107 22.01634,-8.95439 37.27366,-8.95439 15.25732,0 23.84613,2.06332 37.27366,8.95439 7.56065,3.88017 10.95043,6.4591 18.7762,14.28486 7.82576,7.82577 10.40469,11.21555 14.28486,18.7762 6.89107,13.42753 8.95439,22.01634 8.95439,37.27366 0,15.25732 -2.06332,23.84613 -8.95439,37.27366 -3.88017,7.56065 -6.4591,10.95043 -14.28486,18.7762 -7.82577,7.82576 -11.21555,10.40469 -18.7762,14.28486 -5.07449,2.60425 -12.72449,5.63756 -17,6.7407 -10.1412,2.61654 -24.74151,3.26956 -33.91346,1.51682 z M 231.29648,412.31279 c -9.95122,-2.89522 -17.18533,-20.40192 -14.67943,-35.52452 4.11616,-24.84024 24.68496,-31.12657 35.17385,-10.75 8.40009,16.31868 1.64466,42.56946 -11.92501,46.33921 -4.06755,1.12999 -4.47369,1.12693 -8.56941,-0.0647 z m 220,0 c -9.95122,-2.89522 -17.18533,-20.40192 -14.67943,-35.52452 4.11616,-24.84024 24.68496,-31.12657 35.17385,-10.75 8.40009,16.31868 1.64466,42.56946 -11.92501,46.33921 -4.06755,1.12999 -4.47369,1.12693 -8.56941,-0.0647 z M 246.32116,272.12328 c -1.37525,-11.20646 3.18682,-21.46236 14.05687,-31.60096 14.59597,-13.61379 39.72848,-23.32282 67.1935,-25.95776 l 8.25,-0.79149 0,24.6631 0,24.66309 -9.75,0.67639 c -21.42916,1.48661 -38.00692,4.14513 -62.59953,10.03887 -8.16725,1.95732 -15.22237,3.55876 -15.67805,3.55876 -0.45568,0 -1.11843,-2.3625 -1.47279,-5.25 z m 188.50037,3.66617 c -21.67576,-5.37034 -50.05496,-10.14173 -71.25,-11.97925 l -7.75,-0.6719 0,-24.68261 0,-24.68262 8.25,0.79149 c 27.46502,2.63494 52.59753,12.34397 67.1935,25.95776 10.87005,10.1386 15.43212,20.3945 14.05687,31.60096 -0.73349,5.97692 -0.91622,6.04072 -10.50037,3.66617 z"
       id="path2830" />
  </g>
</svg>
